<mxfile host="app.diagrams.net" modified="2023-12-28T05:05:49.951Z" agent="Mozilla/5.0 (Macintosh; Intel Mac OS X 10_15_7) AppleWebKit/537.36 (KHTML, like Gecko) Chrome/120.0.0.0 Safari/537.36" version="22.1.15" etag="ovixSkvOk6K1YRSGLXpB" type="github">
  <diagram name="페이지-1" id="c9lM2Bzc1WVb9wRKtyAZ">
    <mxGraphModel>
      <root>
        <mxCell id="0" />
        <mxCell id="1" parent="0" />
      </root>
    </mxGraphModel>
  </diagram>
</mxfile>
